<?xml version="1.0" encoding="UTF-8"?>
<svg width="512" height="512" viewBox="0 0 512 512" fill="none" xmlns="http://www.w3.org/2000/svg">
  <rect width="512" height="512" rx="256" fill="#0088E6"/>
  <path d="M346.5 165.5C318.5 137.5 273.5 137.5 245.5 165.5L165.5 245.5C137.5 273.5 137.5 318.5 165.5 346.5C193.5 374.5 238.5 374.5 266.5 346.5L346.5 266.5C374.5 238.5 374.5 193.5 346.5 165.5Z" fill="white"/>
  <path d="M296 216C287.2 207.2 273.2 207.2 264.4 216L216 264.4C207.2 273.2 207.2 287.2 216 296C224.8 304.8 238.8 304.8 247.6 296L296 247.6C304.8 238.8 304.8 224.8 296 216Z" fill="#0088E6"/>
</svg>